<?xml version="1.0" encoding="UTF-8" standalone="no" ?>
<!DOCTYPE svg PUBLIC "-//W3C//DTD SVG 1.1//EN" "http://www.w3.org/Graphics/SVG/1.1/DTD/svg11.dtd">
<svg xmlns="http://www.w3.org/2000/svg" xmlns:xlink="http://www.w3.org/1999/xlink" version="1.1" width="227.76999999999992" height="257.907" xml:space="preserve">
<desc>Created with Fabric.js 1.6.0-rc.1</desc>
<defs></defs>
<g style="stroke: none; stroke-width: 1; stroke-dasharray: none; stroke-linecap: butt; stroke-linejoin: miter; stroke-miterlimit: 10; fill: none; fill-rule: nonzero; opacity: 1;" transform="translate(22.829999999999927 10) rotate(20.25) scale(0.38 0.38)" >
  <path d="M 256 512 C 114.616 512 0 397.384 0 256 C -0.004 114.616 114.611 0.002 255.995 0 C 397.38 0 512 114.616 512 256 S 397.384 512 256 512 z" style="stroke: none; stroke-width: 1; stroke-dasharray: none; stroke-linecap: butt; stroke-linejoin: miter; stroke-miterlimit: 10; fill: #24566D; fill-rule: nonzero; opacity: 0;" transform=" matrix(1 0 0 1 0 0) " stroke-linecap="round" />
  <path d="M 164.281 249.526 c 3.114 6.885 4.861 14.519 4.861 22.567 c 0 30.295 -24.56 54.857 -54.856 54.857 c -8.05 0 -15.684 -1.748 -22.569 -4.862 c 8.606 19.038 27.747 32.291 49.997 32.291 c 30.297 0 54.857 -24.563 54.857 -54.857 C 196.571 277.272 183.317 258.132 164.281 249.526 z" style="stroke: none; stroke-width: 1; stroke-dasharray: none; stroke-linecap: butt; stroke-linejoin: miter; stroke-miterlimit: 10; fill: #ace6e3; fill-rule: nonzero; opacity: 1;" transform=" matrix(1 0 0 1 0 0) " stroke-linecap="round" />
  <path d="M 169.143 272.094 c 0 -8.049 -1.747 -15.683 -4.861 -22.567 c -6.886 -3.113 -14.521 -4.861 -22.567 -4.861 c -30.299 0 -54.856 24.563 -54.856 54.857 c 0 8.049 1.745 15.683 4.859 22.566 c 6.886 3.114 14.52 4.862 22.569 4.862 C 144.583 326.951 169.143 302.389 169.143 272.094 z" style="stroke: none; stroke-width: 1; stroke-dasharray: none; stroke-linecap: butt; stroke-linejoin: miter; stroke-miterlimit: 10; fill: #baf5ca; fill-rule: nonzero; opacity: 1;" transform=" matrix(1 0 0 1 0 0) " stroke-linecap="round" />
  <path d="M 391.232 214.576 c 4.151 9.179 6.481 19.356 6.481 30.089 c 0 40.393 -32.747 73.143 -73.143 73.143 c -10.732 0 -20.91 -2.33 -30.094 -6.481 c 11.478 25.384 36.998 43.054 66.665 43.054 c 40.396 0 73.144 -32.75 73.144 -73.144 C 434.286 251.569 416.611 226.049 391.232 214.576 z" style="stroke: none; stroke-width: 1; stroke-dasharray: none; stroke-linecap: butt; stroke-linejoin: miter; stroke-miterlimit: 10; fill: #ace6e3; fill-rule: nonzero; opacity: 1;" transform=" matrix(1 0 0 1 0 0) " stroke-linecap="round" />
  <path d="M 397.714 244.665 c 0 -10.732 -2.33 -20.91 -6.481 -30.089 c -9.184 -4.152 -19.362 -6.482 -30.09 -6.482 c -40.399 0 -73.143 32.75 -73.143 73.143 c 0 10.732 2.326 20.911 6.478 30.09 c 9.184 4.151 19.361 6.481 30.094 6.481 C 364.967 317.808 397.714 285.058 397.714 244.665 z" style="stroke: none; stroke-width: 1; stroke-dasharray: none; stroke-linecap: butt; stroke-linejoin: miter; stroke-miterlimit: 10; fill: #baf5ca; fill-rule: nonzero; opacity: 1;" transform=" matrix(1 0 0 1 0 0) " stroke-linecap="round" />
  <path d="M 296.563 144.674 c 6.228 13.769 9.724 29.036 9.724 45.134 c 0 60.59 -49.121 109.715 -109.715 109.715 c -16.098 0 -31.366 -3.496 -45.141 -9.724 c 17.217 38.076 55.498 64.581 99.998 64.581 c 60.594 0 109.714 -49.125 109.714 -109.715 C 361.143 200.165 334.632 161.884 296.563 144.674 z" style="stroke: none; stroke-width: 1; stroke-dasharray: none; stroke-linecap: butt; stroke-linejoin: miter; stroke-miterlimit: 10; fill: #ace6e3; fill-rule: nonzero; opacity: 1;" transform=" matrix(1 0 0 1 0 0) " stroke-linecap="round" />
  <path d="M 306.286 189.808 c 0 -16.098 -3.496 -31.365 -9.724 -45.134 c -13.774 -6.228 -29.042 -9.723 -45.134 -9.723 c -60.599 0 -109.715 49.125 -109.715 109.714 c 0 16.099 3.489 31.366 9.717 45.134 c 13.774 6.228 29.043 9.724 45.141 9.724 C 257.165 299.522 306.286 250.397 306.286 189.808 z" style="stroke: none; stroke-width: 1; stroke-dasharray: none; stroke-linecap: butt; stroke-linejoin: miter; stroke-miterlimit: 10; fill: #baf5ca; fill-rule: nonzero; opacity: 1;" transform=" matrix(1 0 0 1 0 0) " stroke-linecap="round" />
  <rect x="141.71" y="319.59" rx="0" ry="0" width="219.43" height="34.79" style="stroke: none; stroke-width: 1; stroke-dasharray: none; stroke-linecap: butt; stroke-linejoin: miter; stroke-miterlimit: 10; fill: #ace6e3; fill-rule: nonzero; opacity: 1;" transform=" matrix(1 0 0 1 0 0) "/>
</g>
  <g transform="translate(59.5 132.44) scale(1.34 0.63)">
   <text font-family="Comic Neue" font-size="40" font-style="italic" font-weight="normal" style="stroke: none; stroke-width: 1; stroke-dasharray: none; stroke-linecap: butt; stroke-linejoin: miter; stroke-miterlimit: 10; fill: #0e9cb5; fill-rule: nonzero; opacity: 1;" ><tspan x="-21" y="8.98" style="stroke: none; stroke-width: 0; stroke-dasharray: none; stroke-linecap: butt; stroke-linejoin: miter; stroke-miterlimit: 4; fill: #0e9cb5; fill-rule: ; opacity: 1;">n</tspan><tspan x="0" y="8.98" style="stroke: none; stroke-width: 0; stroke-dasharray: none; stroke-linecap: butt; stroke-linejoin: miter; stroke-miterlimit: 4; fill: #0e9cb5; fill-rule: ; opacity: 1;">k</tspan></text>
 </g>
  <g transform="translate(134.93 202.67) scale(0.8 0.8)">
   <text font-family="Elektora" font-size="40" font-style="italic" font-weight="normal" style="stroke: none; stroke-width: 1; stroke-dasharray: none; stroke-linecap: butt; stroke-linejoin: miter; stroke-miterlimit: 10; fill: #528f0b; fill-rule: nonzero; opacity: 1;" ><tspan x="-18.5" y="8.98" style="stroke: none; stroke-width: 0; stroke-dasharray: none; stroke-linecap: butt; stroke-linejoin: miter; stroke-miterlimit: 4; fill: #528f0b; fill-rule: ; opacity: 1;">I</tspan><tspan x="-11.5" y="8.98" style="stroke: none; stroke-width: 0; stroke-dasharray: none; stroke-linecap: butt; stroke-linejoin: miter; stroke-miterlimit: 4; fill: #528f0b; fill-rule: ; opacity: 1;">P</tspan></text>
 </g>
<g style="stroke: none; stroke-width: 1; stroke-dasharray: none; stroke-linecap: butt; stroke-linejoin: miter; stroke-miterlimit: 10; fill: none; fill-rule: nonzero; opacity: 1;" transform="translate(10 69.60999999999999) scale(0.35 0.35)" >
  <path d="M 516.727 266.696 c -0.665 -34.825 -8.221 -69.54 -22.175 -101.283 c -13.908 -31.771 -34.094 -60.551 -58.876 -84.333 c -24.767 -23.8 -54.139 -42.615 -85.929 -55.027 c -31.773 -12.46 -65.937 -18.412 -99.687 -17.69 c -33.755 0.668 -67.36 8.007 -98.091 21.539 c -30.754 13.488 -58.615 33.058 -81.632 57.071 c -23.033 24.001 -41.229 52.452 -53.222 83.229 C 5.077 200.962 -0.66 234.013 0.06 266.696 c 0.67 32.688 7.793 65.182 20.903 94.899 c 13.067 29.738 32.019 56.681 55.266 78.931 c 23.234 22.268 50.766 39.846 80.528 51.417 c 29.749 11.616 61.69 17.136 93.303 16.419 c 31.62 -0.671 63.001 -7.58 91.707 -20.268 c 28.724 -12.646 54.747 -30.979 76.231 -53.461 c 21.503 -22.469 38.461 -49.08 49.611 -77.827 c 6.79 -17.427 11.396 -35.624 13.824 -54.062 c 0.649 0.037 1.302 0.063 1.96 0.063 c 18.409 0 33.333 -14.923 33.333 -33.333 c 0 -0.936 -0.049 -1.861 -0.124 -2.777 L 516.727 266.696 L 516.727 266.696 z M 463.762 355.21 c -12.226 27.71 -29.94 52.812 -51.655 73.532 c -21.703 20.732 -47.396 37.076 -75.127 47.807 c -27.724 10.77 -57.443 15.859 -86.919 15.146 c -29.481 -0.677 -58.644 -7.154 -85.323 -18.997 c -26.692 -11.806 -50.877 -28.901 -70.83 -49.849 c -19.968 -20.938 -35.691 -45.711 -46.001 -72.427 c -10.349 -26.712 -15.223 -55.321 -14.512 -83.728 c 0.678 -28.413 6.941 -56.465 18.361 -82.131 c 11.384 -25.677 27.863 -48.943 48.045 -68.13 c 20.172 -19.202 44.026 -34.307 69.726 -44.195 c 25.697 -9.928 53.195 -14.587 80.534 -13.877 c 27.343 0.68 54.286 6.728 78.939 17.726 c 24.662 10.963 47.008 26.824 65.429 46.241 c 18.436 19.405 32.922 42.341 42.391 67.025 c 9.504 24.684 13.948 51.072 13.241 77.342 h 0.125 c -0.076 0.916 -0.125 1.841 -0.125 2.777 c 0 17.193 13.018 31.34 29.732 33.137 C 476.551 320.747 471.184 338.453 463.762 355.21 z" style="stroke: none; stroke-width: 1; stroke-dasharray: none; stroke-linecap: butt; stroke-linejoin: miter; stroke-miterlimit: 10; fill: #67f5f5; fill-rule: nonzero; opacity: 1;" transform="" stroke-linecap="round" />
</g>
  <g transform="translate(116.24 181.35)">
   <text font-family="Delicate" font-size="40" font-style="italic" font-weight="bold" style="stroke: none; stroke-width: 1; stroke-dasharray: none; stroke-linecap: butt; stroke-linejoin: miter; stroke-miterlimit: 10; fill: #404866; fill-rule: nonzero; opacity: 1;" ><tspan x="-15" y="8.98" style="stroke: none; stroke-width: 0; stroke-dasharray: none; stroke-linecap: butt; stroke-linejoin: miter; stroke-miterlimit: 4; fill: #404866; fill-rule: ; opacity: 1;">D</tspan></text>
 </g>
  <g transform="translate(34.22 108.88) scale(1.28 1.28)">
   <text font-family="Arial" font-size="40" font-style="italic" font-weight="bold" style="stroke: none; stroke-width: 1; stroke-dasharray: none; stroke-linecap: butt; stroke-linejoin: miter; stroke-miterlimit: 10; fill: #394d2b; fill-rule: nonzero; opacity: 1;" ><tspan x="-14.5" y="8.98" style="stroke: none; stroke-width: 0; stroke-dasharray: none; stroke-linecap: butt; stroke-linejoin: miter; stroke-miterlimit: 4; fill: #394d2b; fill-rule: ; opacity: 1;">A</tspan></text>
 </g>
</svg>